<svg width="20" height="20" viewBox="0 0 64 64" fill="none" xmlns="http://www.w3.org/2000/svg">
<path d="M32.0006 58.6668C46.7282 58.6668 58.6673 46.7278 58.6673 32.0002C58.6673 17.2726 46.7282 5.3335 32.0006 5.3335C17.2731 5.3335 5.33398 17.2726 5.33398 32.0002C5.33398 46.7278 17.2731 58.6668 32.0006 58.6668Z" stroke="#000" stroke-width="1.5" stroke-linecap="round" stroke-linejoin="round"/>
<path d="M21.3329 8H23.9996C18.7996 23.5733 18.7996 40.4267 23.9996 56H21.3329" stroke="#000" stroke-width="1.5" stroke-linecap="round" stroke-linejoin="round"/>
<path d="M40 8C45.2 23.5733 45.2 40.4267 40 56" stroke="#000" stroke-width="1.5" stroke-linecap="round" stroke-linejoin="round"/>
<path d="M8 42.6667V40C23.5733 45.2 40.4267 45.2 56 40V42.6667" stroke="#000" stroke-width="1.5" stroke-linecap="round" stroke-linejoin="round"/>
<path d="M8 24.0001C23.5733 18.8001 40.4267 18.8001 56 24.0001" stroke="#000" stroke-width="1.5" stroke-linecap="round" stroke-linejoin="round"/>
</svg>
